# xmcd CD database file
#
# Track frame offsets:
#	150
#	27833
#	79479
#	113246
#	162160
#	213967
#	259889
#
# Disc length: 3686 seconds
#
# Revision: 0
# Processed by: cddbd v1.5.2PL0 Copyright (c) Steve Scherf et al.
# Submitted via: CDex 1.50
#
DISCID=590e6407
DTITLE=Chet Baker - Norske Innspillinger 1984-1988
DYEAR=2006
DGENRE=Jazz
TTITLE0=Nightbird
TTITLE1=My Foolish Heart
TTITLE2=Strollin'
TTITLE3=Broken Wing
TTITLE4=In Your Own Sweet Way
TTITLE5=Nightbird
TTITLE6=Et Nytt Møte
EXTD=YEAR: 2006
EXTT0=
EXTT1=
EXTT2=
EXTT3=
EXTT4=
EXTT5=
EXTT6=
PLAYORDER=
